<?xml version="1.0" standalone="no"?>
<!DOCTYPE svg PUBLIC "-//W3C//DTD SVG 20010904//EN"
 "http://www.w3.org/TR/2001/REC-SVG-20010904/DTD/svg10.dtd">
<svg version="1.0" xmlns="http://www.w3.org/2000/svg"
 width="225.000000pt" height="225.000000pt" viewBox="0 0 225.000000 225.000000"
 preserveAspectRatio="xMidYMid meet">
<metadata>
Created by potrace 1.14, written by Peter Selinger 2001-2017
</metadata>
<g transform="translate(0.000000,225.000000) scale(0.100000,-0.100000)"
fill="#000000" stroke="none">
<path d="M783 2238 c-26 -12 -39 -45 -48 -113 -15 -132 -12 -125 -58 -125 -51
0 -100 -28 -115 -66 -7 -16 -23 -82 -35 -146 -22 -105 -28 -121 -66 -169 l-42
-52 28 -18 28 -19 54 61 c304 341 855 306 1106 -71 165 -248 165 -542 0 -790
-84 -127 -205 -218 -362 -273 -81 -29 -98 -31 -218 -31 -113 1 -140 4 -210 27
-44 15 -109 43 -145 64 -83 49 -204 170 -253 253 -109 189 -125 419 -43 622
l26 63 -21 18 c-12 9 -25 17 -29 17 -12 0 -58 -111 -77 -186 -24 -99 -22 -275
5 -375 26 -98 77 -198 143 -285 50 -64 54 -74 76 -183 13 -64 28 -129 35 -145
15 -38 64 -66 115 -66 46 0 43 7 58 -125 9 -70 22 -101 51 -114 15 -7 86 -11
179 -11 l155 0 0 35 0 35 -155 0 c-85 0 -155 3 -155 8 0 4 -9 77 -20 162 -10
85 -18 156 -16 157 1 2 38 -7 82 -18 111 -30 287 -30 398 0 44 11 81 20 82 18
1 -1 -6 -70 -17 -152 -10 -83 -19 -156 -19 -162 0 -9 -17 -13 -50 -13 l-50 0
0 -35 0 -35 50 0 c92 0 113 23 125 135 11 115 11 115 58 115 51 0 100 28 115
66 7 16 23 82 36 147 13 65 28 123 34 129 7 7 27 4 64 -11 78 -33 100 -21 144
75 18 41 34 88 34 103 0 28 -29 62 -62 74 -22 8 -22 6 1 87 l18 65 56 3 c81 4
97 27 97 137 0 110 -16 133 -97 137 l-56 3 -18 65 c-23 81 -23 79 -1 87 33 12
62 46 62 74 0 15 -16 62 -34 103 -44 96 -66 108 -144 75 -37 -15 -57 -18 -64
-11 -6 6 -21 64 -34 129 -13 65 -29 131 -36 147 -15 38 -64 66 -115 66 -47 0
-47 0 -58 115 -8 79 -21 110 -51 124 -15 7 -86 11 -179 11 l-155 0 0 -35 0
-35 155 0 c117 0 155 -3 155 -12 0 -7 9 -80 19 -163 11 -82 18 -151 17 -152
-1 -2 -38 7 -82 18 -60 17 -108 22 -199 22 -91 0 -139 -5 -199 -22 -44 -11
-81 -20 -82 -18 -2 1 6 72 16 157 11 85 20 158 20 163 0 4 23 7 50 7 l50 0 0
35 0 35 -52 -1 c-29 0 -63 -5 -75 -11z m-77 -344 c-3 -26 -6 -54 -6 -64 0 -16
-97 -86 -106 -77 -5 5 24 145 32 159 8 12 43 27 68 27 17 1 18 -4 12 -45z
m771 23 c10 -10 43 -138 43 -167 0 -5 -24 7 -52 27 -55 36 -66 59 -67 137 -1
27 1 28 31 22 18 -4 38 -12 45 -19z m288 -353 c30 -69 30 -70 3 -85 -17 -9
-23 -9 -26 0 -2 7 -19 34 -37 61 l-34 50 27 15 c15 8 30 14 35 15 4 0 18 -25
32 -56z m130 -439 l0 -70 -34 0 -33 0 0 68 c1 37 1 70 1 73 1 3 16 4 34 2 l32
-3 0 -70z m-120 -359 c18 -13 18 -15 -4 -67 -30 -71 -33 -73 -69 -55 l-31 16
35 51 c19 28 34 55 34 60 0 13 13 11 35 -5z m-269 -343 c-18 -87 -27 -100 -74
-109 -30 -6 -32 -5 -31 22 1 77 13 101 64 136 28 19 52 33 53 32 2 -1 -3 -38
-12 -81z m-857 46 c29 -18 51 -39 51 -49 0 -10 3 -39 7 -65 l6 -48 -33 6 c-48
10 -58 22 -70 85 -7 31 -14 67 -17 80 -7 28 -4 28 56 -9z"/>
<path d="M920 2040 l0 -30 135 0 135 0 0 30 0 30 -135 0 -135 0 0 -30z"/>
<path d="M890 1697 c-108 -33 -175 -73 -256 -152 -78 -78 -132 -173 -159 -280
-19 -76 -19 -204 0 -280 19 -73 74 -187 114 -235 l29 -35 25 24 25 23 -32 43
c-56 73 -106 196 -106 263 0 19 5 22 35 22 33 0 35 2 35 35 0 34 -1 35 -36 35
l-37 0 6 43 c28 201 187 379 388 432 87 24 99 21 99 -20 0 -33 2 -35 35 -35
33 0 35 2 35 35 0 31 3 35 26 35 43 0 174 -49 230 -86 103 -68 180 -176 218
-303 25 -86 23 -101 -19 -101 -33 0 -35 -2 -35 -35 0 -33 2 -35 35 -35 42 0
44 -15 19 -101 -38 -127 -115 -235 -218 -303 -56 -37 -187 -86 -230 -86 -23 0
-26 4 -26 35 0 33 -2 35 -35 35 -34 0 -35 -1 -35 -36 l0 -37 -45 6 c-63 9
-142 39 -200 75 l-50 32 -18 -22 c-10 -11 -16 -26 -14 -32 7 -23 136 -87 217
-107 165 -42 337 -11 478 84 177 121 272 314 259 526 -7 114 -37 204 -98 296
-145 216 -413 315 -659 242z"/>
<path d="M1205 1250 c-77 -77 -144 -140 -150 -140 -6 0 -51 40 -100 90 l-89
90 -23 -22 -24 -22 113 -113 c62 -62 117 -113 123 -113 6 0 84 74 175 165 162
162 164 164 145 185 -10 11 -21 20 -24 20 -4 0 -69 -63 -146 -140z"/>
<path d="M1230 915 l0 -35 105 0 105 0 0 35 0 35 -105 0 -105 0 0 -35z"/>
<path d="M920 210 l0 -30 135 0 135 0 0 30 0 30 -135 0 -135 0 0 -30z"/>
</g>
</svg>
